<svg width="454" height="128" viewBox="0 0 454 128" fill="none" xmlns="http://www.w3.org/2000/svg">
<path d="M27.3223 24.7936C27.4617 24.7867 27.6007 24.8183 27.7236 24.8845C27.8465 24.9507 27.9487 25.0494 28.0195 25.1696C28.0905 25.29 28.1276 25.4274 28.126 25.5671V116.38C28.1249 116.525 28.0825 116.667 28.0039 116.789C27.9253 116.911 27.8133 117.007 27.6816 117.068L6.95703 126.681C6.8409 126.735 6.71263 126.758 6.58496 126.75C6.45737 126.741 6.3336 126.701 6.22559 126.633C6.11774 126.564 6.02884 126.47 5.9668 126.358C5.90467 126.246 5.87108 126.12 5.87012 125.992V39.2663C5.86867 39.1396 5.89924 39.0142 5.95801 38.902C6.01673 38.79 6.10228 38.6946 6.20703 38.6237L26.9316 24.9245C27.0474 24.8463 27.1827 24.8007 27.3223 24.7936ZM100.581 24.3835C100.687 24.3882 100.789 24.4218 100.877 24.4802L121.739 38.3932C121.818 38.4453 121.883 38.5157 121.929 38.5983C121.974 38.6809 121.998 38.7737 122 38.8679V125.517C121.999 125.614 121.973 125.71 121.926 125.795C121.878 125.879 121.811 125.951 121.729 126.003C121.646 126.054 121.552 126.084 121.455 126.091C121.358 126.097 121.262 126.079 121.174 126.038L100.311 116.487C100.211 116.441 100.127 116.367 100.067 116.275C100.008 116.183 99.975 116.076 99.9736 115.966V24.9704C99.9727 24.8648 100.001 24.7606 100.055 24.6696C100.108 24.5787 100.186 24.5041 100.278 24.4538C100.371 24.4035 100.476 24.3789 100.581 24.3835ZM64.1572 1.24481C64.7389 1.24488 65.6473 1.64775 66.8818 2.4538C74.4636 7.38245 82.0758 12.3931 89.7188 17.485C90.1613 17.7818 90.5245 18.1844 90.7754 18.6569C91.0262 19.1292 91.1569 19.6572 91.1572 20.194V111.558C91.158 111.664 91.1331 111.769 91.084 111.862C91.0347 111.956 90.963 112.035 90.876 112.093C90.789 112.151 90.689 112.186 90.5859 112.194C90.4827 112.202 90.3789 112.184 90.2852 112.14L70.54 103.093C70.0973 102.889 69.7221 102.561 69.459 102.149C69.196 101.737 69.0554 101.258 69.0547 100.767L69.0088 40.3679C69.008 40.1487 68.9338 39.9363 68.7979 39.7643C68.6619 39.5923 68.472 39.471 68.2588 39.4196C68.0233 39.3584 66.6715 39.3278 64.2031 39.3278C61.7337 39.338 60.3812 39.3686 60.1465 39.4196C59.9337 39.4746 59.7455 39.5993 59.6123 39.7741C59.4791 39.949 59.4086 40.1636 59.4121 40.3835L59.5039 100.783C59.5032 101.273 59.3626 101.753 59.0996 102.165C58.8366 102.577 58.4621 102.905 58.0195 103.109L38.2891 112.201C38.1954 112.245 38.0924 112.264 37.9893 112.256C37.886 112.247 37.7853 112.213 37.6982 112.155C37.6113 112.097 37.5405 112.017 37.4912 111.924C37.442 111.83 37.4163 111.726 37.417 111.62L37.2178 20.2556C37.2163 19.7199 37.3456 19.1928 37.5938 18.7204C37.8419 18.2481 38.2019 17.8451 38.6416 17.5466C46.2744 12.4343 53.8767 7.40284 61.4482 2.4538C62.6827 1.64787 63.5859 1.24481 64.1572 1.24481Z" fill="#C5A257"/>
<path d="M157.872 118V51.376H166.896V118H157.872ZM200.88 118V51.376H209.904V118H200.88ZM164.016 87.664V79.408H203.088V87.664H164.016ZM245.237 118.96C240.693 118.96 236.597 117.936 232.949 115.888C229.301 113.776 226.421 110.928 224.309 107.344C222.197 103.76 221.141 99.696 221.141 95.152C221.141 90.672 222.165 86.64 224.213 83.056C226.325 79.472 229.141 76.656 232.661 74.608C236.245 72.496 240.245 71.44 244.661 71.44C248.885 71.44 252.597 72.4 255.797 74.32C259.061 76.24 261.589 78.896 263.381 82.288C265.237 85.68 266.165 89.52 266.165 93.808C266.165 94.448 266.133 95.152 266.069 95.92C266.005 96.624 265.877 97.456 265.685 98.416H227.189V91.216H261.077L257.909 94C257.909 90.928 257.365 88.336 256.277 86.224C255.189 84.048 253.653 82.384 251.669 81.232C249.685 80.016 247.285 79.408 244.469 79.408C241.525 79.408 238.933 80.048 236.693 81.328C234.453 82.608 232.725 84.4 231.509 86.704C230.293 89.008 229.685 91.728 229.685 94.864C229.685 98.064 230.325 100.88 231.605 103.312C232.885 105.68 234.709 107.536 237.077 108.88C239.445 110.16 242.165 110.8 245.237 110.8C247.797 110.8 250.133 110.352 252.245 109.456C254.421 108.56 256.277 107.216 257.813 105.424L263.381 111.088C261.205 113.648 258.517 115.6 255.317 116.944C252.181 118.288 248.821 118.96 245.237 118.96ZM294.978 118.96C290.818 118.96 287.042 117.936 283.65 115.888C280.258 113.776 277.57 110.928 275.586 107.344C273.666 103.76 272.706 99.728 272.706 95.248C272.706 90.768 273.666 86.736 275.586 83.152C277.57 79.568 280.226 76.72 283.554 74.608C286.946 72.496 290.754 71.44 294.978 71.44C298.434 71.44 301.506 72.176 304.194 73.648C306.946 75.056 309.154 77.04 310.818 79.6C312.482 82.096 313.41 85.008 313.602 88.336V102.064C313.41 105.328 312.482 108.24 310.818 110.8C309.218 113.36 307.042 115.376 304.29 116.848C301.602 118.256 298.498 118.96 294.978 118.96ZM296.418 110.8C300.706 110.8 304.162 109.36 306.786 106.48C309.41 103.536 310.722 99.792 310.722 95.248C310.722 92.112 310.114 89.392 308.898 87.088C307.746 84.72 306.082 82.896 303.906 81.616C301.73 80.272 299.202 79.6 296.322 79.6C293.442 79.6 290.882 80.272 288.642 81.616C286.466 82.96 284.738 84.816 283.458 87.184C282.242 89.488 281.634 92.144 281.634 95.152C281.634 98.224 282.242 100.944 283.458 103.312C284.738 105.616 286.498 107.44 288.738 108.784C290.978 110.128 293.538 110.8 296.418 110.8ZM310.146 118V105.712L311.778 94.576L310.146 83.536V72.4H318.882V118H310.146ZM331.461 118V72.4H340.101V118H331.461ZM340.101 91.984L336.837 90.544C336.837 84.72 338.181 80.08 340.869 76.624C343.557 73.168 347.429 71.44 352.485 71.44C354.789 71.44 356.869 71.856 358.725 72.688C360.581 73.456 362.309 74.768 363.909 76.624L358.245 82.48C357.285 81.456 356.229 80.72 355.077 80.272C353.925 79.824 352.581 79.6 351.045 79.6C347.845 79.6 345.221 80.624 343.173 82.672C341.125 84.72 340.101 87.824 340.101 91.984ZM376.813 118V53.296H385.453V118H376.813ZM365.581 80.272V72.4H396.685V80.272H365.581ZM437.405 118V91.408C437.405 87.952 436.317 85.104 434.141 82.864C431.965 80.624 429.149 79.504 425.693 79.504C423.389 79.504 421.341 80.016 419.549 81.04C417.757 82.064 416.349 83.472 415.325 85.264C414.301 87.056 413.789 89.104 413.789 91.408L410.237 89.392C410.237 85.936 411.005 82.864 412.541 80.176C414.077 77.488 416.221 75.376 418.973 73.84C421.725 72.24 424.829 71.44 428.285 71.44C431.741 71.44 434.781 72.208 437.405 73.744C440.093 75.28 442.205 77.424 443.741 80.176C445.277 82.928 446.045 86.096 446.045 89.68V118H437.405ZM405.148 118V49.456H413.789V118H405.148Z" fill="#C5A257"/>
</svg>
